<svg width="20" height="21" viewBox="0 0 20 21" fill="none" xmlns="http://www.w3.org/2000/svg">
<g id="fi:link">
<path id="Vector" d="M8.3335 11.3335C8.69137 11.8119 9.14796 12.2078 9.67229 12.4943C10.1966 12.7807 10.7764 12.9511 11.3724 12.9937C11.9683 13.0364 12.5665 12.9504 13.1263 12.7416C13.6861 12.5328 14.1944 12.206 14.6168 11.7835L17.1168 9.28347C17.8758 8.49763 18.2958 7.44512 18.2863 6.35263C18.2768 5.26014 17.8386 4.21509 17.0661 3.44256C16.2935 2.67002 15.2485 2.23182 14.156 2.22233C13.0635 2.21283 12.011 2.63281 11.2252 3.3918L9.79183 4.8168" stroke="#0066FF" stroke-width="1.5" stroke-linecap="round" stroke-linejoin="round"/>
<path id="Vector_2" d="M11.6668 9.66653C11.309 9.18809 10.8524 8.79221 10.328 8.50575C9.80371 8.21928 9.22391 8.04893 8.62796 8.00625C8.03201 7.96357 7.43384 8.04956 6.87405 8.25838C6.31425 8.4672 5.8059 8.79397 5.3835 9.21653L2.8835 11.7165C2.12451 12.5024 1.70453 13.5549 1.71402 14.6474C1.72352 15.7399 2.16172 16.7849 2.93426 17.5574C3.70679 18.33 4.75184 18.7682 5.84433 18.7777C6.93681 18.7872 7.98932 18.3672 8.77517 17.6082L10.2002 16.1832" stroke="#0066FF" stroke-width="1.5" stroke-linecap="round" stroke-linejoin="round"/>
</g>
</svg>
